<svg xmlns="http://www.w3.org/2000/svg" width="23" height="21" viewBox="0 0 23 21" fill="none"><path d="M12.0067 11V16.585L13.8347 14.757L15.2497 16.172L11.0067 20.414L6.76373 16.172L8.17873 14.757L10.0067 16.585V11H12.0067ZM11.0067 2.2216e-08C12.7237 8.17698e-05 14.3808 0.631114 15.6629 1.77312C16.9451 2.91512 17.7628 4.48846 17.9607 6.194C19.205 6.53332 20.2905 7.2991 21.0274 8.35753C21.7643 9.41595 22.1059 10.6997 21.9923 11.9844C21.8788 13.2691 21.3174 14.473 20.4063 15.3858C19.4952 16.2986 18.2922 16.8622 17.0077 16.978L17.0067 15C17.0083 13.4271 16.3922 11.9166 15.2911 10.7935C14.1899 9.67034 12.6918 9.02452 11.1193 8.99502C9.54667 8.96553 8.02539 9.55472 6.88292 10.6357C5.74044 11.7168 5.06813 13.2032 5.01073 14.775L5.00673 15V16.978C3.72218 16.8623 2.51914 16.2989 1.60786 15.3862C0.696592 14.4735 0.135057 13.2696 0.0214042 11.9848C-0.0922487 10.7001 0.249209 9.41628 0.986099 8.35777C1.72299 7.29926 2.80844 6.53339 4.05273 6.194C4.25044 4.48838 5.06814 2.91491 6.35031 1.77287C7.63248 0.63082 9.28969 -0.000136703 11.0067 2.2216e-08Z" fill="#EA5501"></path></svg>