<svg xmlns="http://www.w3.org/2000/svg" clip-rule="evenodd" fill-rule="evenodd" height="512" viewBox="0 0 43.3492 43.3492" width="512"><g><g><path d="m13.1817 35.4856c.0684 0 .1356.0182.196.0544 1.3596.8154 2.826 1.4238 4.3598 1.808.1416.0352.2506.148.2803.2904l.7971 3.7763c.0586.2754.3089 1.1743 1.104 1.1743l3.5124-.0002c.7942 0 1.0456-.8986 1.103-1.1741l.7972-3.7768c.0307-.1424.1386-.2551.2802-.2904 1.5329-.3838 2.9993-.992 4.3598-1.8077.1249-.0749.2813-.0718.4031.0075l3.236 2.1079c.2357.1538 1.0496.6114 1.611.0499l2.4836-2.4837c.5614-.5617.1038-1.3748-.0496-1.6106l-2.108-3.2361c-.0793-.1219-.0824-.2783-.0071-.403.8149-1.3593 1.4229-2.8264 1.8081-4.3602.0348-.1413.1475-.2497.2901-.2798l3.7758-.7972c.2763-.0582 1.1743-.3094 1.1743-1.1037l.0001-3.5124c0-.7941-.8982-1.0456-1.1745-1.1038l-3.7765-.7971c-.1426-.0303-.2547-.1387-.2903-.2798-.3841-1.5327-.9922-2.9994-1.8081-4.3599-.0741-.1249-.0713-.2812.0079-.403l2.1083-3.2362c.1535-.236.6108-1.0492.0494-1.6107l-2.4835-2.4837c-.5614-.5617-1.3744-.1038-1.6111.0498l-3.2358 2.1078c-.1219.0793-.2784.0824-.4032.0075-1.3593-.8156-2.826-1.4239-4.3598-1.8081-.1416-.0355-.2496-.148-.2802-.2903l-.7972-3.7765c-.0572-.2753-.3089-1.174-1.103-1.174l-3.5122-.0001c-.7952 0-1.0458.8988-1.1042 1.1743l-.7969 3.7762c-.0299.1424-.1389.2552-.2805.2905-1.5338.3842-3.0003.9925-4.3598 1.8079-.1247.0748-.2813.0719-.4031-.0075l-3.2358-2.1078c-.2357-.1537-1.0498-.6112-1.6112-.0497l-2.4833 2.4835c-.5615.5617-.1041 1.375.0494 1.6109l2.1081 3.2356c.0794.1219.0822.2785.0069.4032-.8147 1.3594-1.4229 2.8265-1.8071 4.3604-.0356.1411-.1485.2496-.2911.2798l-3.7756.797c-.2753.0582-1.1744.3097-1.1744 1.1038l.0001 3.5124c0 .794.8989 1.0457 1.1742 1.1038l3.7768.7973c.1426.0298.2553.1386.29.2796.3844 1.5326.9922 2.9996 1.8081 4.36.0744.1247.0713.2811-.0079.403l-2.108 3.2361c-.1536.2359-.6111 1.0492-.0496 1.6109l2.4836 2.4834c.5612.5614 1.3752.1041 1.6108-.0495l3.2361-2.1081c.0624-.0409.1346-.0615.207-.0617zm10.2496 7.8637h-3.5122c-.909 0-1.6171-.681-1.8488-1.7775l-.7474-3.5456c-1.4469-.3843-2.8342-.9594-4.1314-1.7128l-3.0378 1.979c-.9389.6118-1.9211.5927-2.5638-.0496l-2.4834-2.4838c-.6426-.6423-.6615-1.6244-.0495-2.5633l1.9795-3.0387c-.7537-1.2976-1.329-2.6845-1.7132-4.1297l-3.5459-.7487c-1.0961-.2314-1.7774-.9395-1.7774-1.8478v-3.5124c0-.9084.6812-1.6163 1.7774-1.8478l3.5461-.7485c.3841-1.4464.9593-2.8336 1.7119-4.1304l-1.9784-3.0381c-.6118-.9391-.5932-1.9212.0495-2.5635l2.4835-2.4837c.6427-.6421 1.6248-.6613 2.5636-.0497l3.0379 1.9789c1.2974-.7531 2.6845-1.3282 4.1312-1.7124l.7476-3.5459c.2317-1.0963.9397-1.7774 1.8486-1.7774h3.5124c.9081 0 1.616.6811 1.8477 1.7776l.7487 3.5455c1.4457.3843 2.8328.9595 4.13 1.7128l3.0381-1.9791c.9386-.6116 1.9209-.5925 2.5635.0498l2.4835 2.4834c.6427.6426.6614 1.6248.0495 2.5638l-1.9794 3.0384c.7535 1.2976 1.3288 2.6847 1.713 4.1299l3.5461.7485c1.0962.2315 1.7772.9397 1.7772 1.8479l.0001 3.5124c0 .9083-.6813 1.6164-1.7775 1.848l-3.5458.7482c-.3841 1.4464-.9596 2.8337-1.7122 4.1305l1.9786 3.038c.6118.9391.593 1.9214-.0497 2.5637l-2.4832 2.4835c-.6428.6421-1.6251.6614-2.5638.0499l-3.0389-1.9795c-1.2971.7535-2.6846 1.3288-4.1292 1.7125l-.7485 3.5462c-.2317 1.0964-.9398 1.7776-1.8478 1.7775z"></path><path d="m21.6747 11.0789c-5.8421 0-10.5953 4.7533-10.5953 10.5958 0 5.8424 4.753 10.5956 10.5952 10.5956 5.8423-.0001 10.5962-4.7532 10.5962-10.5956.0001-5.8426-4.754-10.5957-10.5961-10.5958zm0 21.9517c-6.2621 0-11.3558-5.0941-11.3558-11.3559.0001-6.262 5.0936-11.3561 11.3557-11.3561 6.2623-.0001 11.3557 5.0942 11.3557 11.3561.0001 6.2617-5.0936 11.3561-11.3556 11.3559z"></path><path d="m28.3388 30.777c-.098 0-.1952-.0371-.2694-.1113l-3.3816-3.3823c-2.0299.7374-4.2945.2422-5.8323-1.2964-1.5041-1.504-2.0171-3.6916-1.3398-5.7096.0426-.1246.1456-.2189.2743-.249.1279-.0303.2624.0082.3555.1013l2.6133 2.6133 2.0397-.6798.6804-2.0401-2.6131-2.6134c-.0932-.0932-.1319-.2276-.1022-.3557.0309-.1282.1248-.2316.2495-.2736 2.0182-.6781 4.2055-.1648 5.7096 1.3392 1.5388 1.5385 2.0339 3.8027 1.2962 5.8323l3.2479 3.2479c.1486.1484.1485.3893 0 .5378-.1475.1484-.3892.1485-.5377 0l-3.4232-3.4237c-.1087-.1087-.1416-.2724-.0822-.4146.7497-1.8035.3416-3.8611-1.0387-5.242-1.1476-1.1471-2.7557-1.6266-4.3153-1.319l2.3133 2.3134c.1018.1018.1374.2525.0919.3891l-.8149 2.4433c-.0377.1134-.1268.2027-.2407.2405l-2.4427.8142c-.1368.0455-.2873.0102-.3892-.0917l-2.3131-2.3136c-.3079 1.5607.1712 3.1687 1.3189 4.3158 1.3803 1.3807 3.438 1.7887 5.2421 1.0388.1416-.0592.306-.0266.4139.0823l3.5581 3.5574c.1483.1486.1483.3895-.0002.5379-.0742.0741-.1714.1114-.2683.1113z"></path></g></g></svg>