<svg xmlns="http://www.w3.org/2000/svg" clip-rule="evenodd" fill-rule="evenodd" height="512" viewBox="0 0 43.3492 43.3492" width="512"><g><g><path d="m15.6502 7.5931c-.6491 0-1.1771.5283-1.1771 1.1775v7.8532c0 .6491.528 1.1774 1.1771 1.1774h11.9758c.649 0 1.177-.5283 1.177-1.1774v-7.8532c0-.6492-.528-1.1775-1.177-1.1775zm11.9758 10.9945h-11.9758c-1.0826 0-1.9634-.8816-1.9634-1.9638v-7.8532c0-1.0823.8808-1.9638 1.9634-1.9638h11.9758c1.0826 0 1.9634.8815 1.9634 1.9638v7.8532c0 1.0822-.8808 1.9638-1.9634 1.9638z"></path><path d="m17.9695 9.8508c-.4463 0-.8094.3634-.8094.8099 0 .4454.3631.8088.8094.8088.4462 0 .8092-.3634.8092-.8088 0-.4465-.363-.8099-.8092-.8099zm0 2.405c-.8799 0-1.5957-.7156-1.5957-1.5951 0-.8806.7157-1.5963 1.5957-1.5963.8797 0 1.5955.7157 1.5955 1.5963 0 .8795-.7158 1.5952-1.5955 1.5951z"></path><path d="m25.3068 9.8508c-.4463 0-.8093.3634-.8093.8099 0 .4454.363.8088.8093.8088.4462 0 .8092-.3634.8092-.8088 0-.4465-.363-.8099-.8092-.8099zm0 2.405c-.8799 0-1.5956-.7156-1.5956-1.5951 0-.8806.7157-1.5963 1.5956-1.5963.8798 0 1.5956.7157 1.5956 1.5963 0 .8795-.7158 1.5952-1.5956 1.5951z"></path><path d="m17.9695 11.0538c-.2172 0-.3932-.1761-.3932-.3931 0-.2171.176-.3932.3932-.3932.217 0 .393.1751.393.3921v.0011c0 .217-.176.3931-.393.3931z"></path><path d="m25.3068 11.0538c-.2171 0-.3932-.1761-.3932-.3931 0-.2171.1761-.3932.3932-.3932s.3931.1751.3931.3921v.0011c0 .217-.176.3931-.3931.3931z"></path><path d="m29.8833 15.0122h-.6871c-.2171 0-.3932-.1761-.3932-.3932s.176-.3932.3932-.3932h.6871c.162 0 .2938-.1321.2938-.2938v-2.4697c0-.1617-.1318-.2938-.2939-.2938h-.687c-.2171 0-.3932-.1761-.3932-.3931 0-.2171.176-.3932.3932-.3932h.6871c.5955 0 1.0801.4843 1.0801 1.0802l.0001 2.4696c0 .5959-.4847 1.0802-1.0802 1.0802z"></path><path d="m31.1529 13.9616h-.5826c-.2172 0-.3932-.176-.3932-.3931s.176-.3932.3932-.3932h.5826c.1026 0 .1894-.087.1894-.1894v-.5775c0-.1023-.0868-.1894-.1894-.1894h-.5826c-.2172 0-.3932-.1761-.3932-.3931 0-.2171.176-.3932.3932-.3932h.5826c.5379 0 .9756.4382.9756.9757v.5775c0 .5375-.4377.9758-.9756.9757z"></path><path d="m14.0799 15.0122h-.687c-.5956 0-1.0801-.4843-1.0801-1.0802v-2.4697c0-.5959.4845-1.0801 1.0801-1.0801h.687c.2172 0 .3932.1761.3932.3932 0 .217-.176.3931-.3932.3931h-.687c-.162 0-.2938.1321-.2938.2939v2.4696c0 .1617.1318.2938.2938.2938h.687c.2172 0 .3932.1761.3932.3932s-.176.3932-.3932.3932z"></path><path d="m12.7059 13.9616h-.5826c-.538 0-.9757-.4381-.9757-.9757v-.5775c0-.5375.4377-.9757.9757-.9757h.5826c.2172 0 .3932.1761.3932.3932 0 .217-.176.3931-.3932.3931h-.5826c-.1026 0-.1893.0871-.1893.1894v.5775c0 .1024.0867.1894.1893.1894h.5826c.2172 0 .3932.1761.3932.3932 0 .217-.176.3932-.3932.3931z"></path><path d="m23.7319 15.5497h-4.1877c-.2182 0-.3951-.1771-.3951-.3952s.1769-.3952.3951-.3952h4.1877c.2183 0 .3952.1771.3952.3952s-.1769.3952-.3952.3952z"></path><path d="m21.6381 7.5931c-.2171 0-.3932-.1761-.3932-.3932v-1.4488l-1.0953-.4403c-.1388-.0563-.2339-.1863-.2453-.3348-.0113-.1495.0629-.2918.1916-.3686l1.1324-.6706v-2.0334c0-.2181.176-.3932.3932-.3932s.3932.1751.3932.3932v2.2566c0 .1392-.0733.2683-.1927.3389l-.6404.3788.6032.2427c.1489.0604.2464.2048.2464.3655v1.714c0 .2171-.176.3932-.3931.3932z"></path><path d="m21.6338.7863c-.1994 0-.3616.1628-.3616.3614 0 .1997.1622.3625.3616.3625.1993 0 .3614-.1628.3614-.3625 0-.1986-.1621-.3614-.3614-.3614zm0 1.5092c-.6329 0-1.1478-.514-1.1478-1.1478 0-.6327.5149-1.1477 1.1478-1.1477.6328 0 1.1478.515 1.1478 1.1477 0 .6338-.515 1.1478-1.1478 1.1478z"></path><path d="m18.5857 22.0801c-.2172 0-.3932-.1761-.3932-.3932v-3.4925c0-.2171.176-.3932.3931-.3932s.3932.1761.3932.3932v3.4925c0 .217-.1761.3932-.3931.3932zm6.1049 0c-.2172 0-.3932-.1761-.3932-.3932v-3.4925c0-.2171.176-.3932.3932-.3932.2171 0 .3932.1761.3932.3932v3.4925c0 .217-.1761.3932-.3932.3932z"></path><path d="m14.3685 30.1452h14.5393v-8.0651h-14.5393zm14.9325.7863h-15.3257c-.2172 0-.3932-.176-.3932-.3931v-8.8515c0-.2171.176-.3932.3932-.3932h15.3257c.217 0 .393.1761.393.3932v8.8515c0 .2171-.176.3931-.393.3931z"></path><path d="m15.5525 40.7782c-.2171 0-.393-.175-.393-.3921v-9.8477c0-.2171.1759-.3932.393-.3932.217 0 .393.1761.393.3932v9.8477c0 .2171-.176.3922-.393.3921zm2.7047 0c-.2171 0-.393-.175-.393-.3921v-9.8477c0-.2171.1759-.3932.393-.3932.217 0 .393.1761.393.3932v9.8477c0 .2171-.176.3922-.393.3921z"></path><path d="m14.3342 42.5639h5.1412c-.2392-1.2081-1.2989-2.1051-2.5706-2.1051s-2.3315.897-2.5706 2.1051zm5.5823.7853h-6.0234c-.1071 0-.2095-.043-.2836-.1197-.0742-.0779-.1136-.1823-.1093-.2888.074-1.8327 1.5695-3.2682 3.4046-3.2682 1.835 0 3.3304 1.4355 3.4046 3.2682.0043.1065-.0352.2109-.1093.2888-.0741.0767-.1765.1197-.2836.1197z"></path><path d="m25.019 40.7782c-.217 0-.3929-.175-.3929-.3921v-9.8477c0-.2171.1759-.3932.3929-.3932s.393.1761.393.3932v9.8477c0 .2171-.176.3922-.393.3921zm2.7048 0c-.2171 0-.393-.175-.393-.3921v-9.8477c0-.2171.1759-.3932.393-.3932.2169 0 .3929.1761.3929.3932v9.8477c0 .2171-.176.3922-.3929.3921z"></path><path d="m23.8008 42.5639h5.1412c-.2392-1.2081-1.2988-2.1051-2.5706-2.1051s-2.3315.897-2.5706 2.1051zm5.5824.7853h-6.0236c-.107 0-.2094-.043-.2835-.1197-.0742-.0779-.1136-.1823-.1093-.2888.0741-1.8327 1.5696-3.2682 3.4046-3.2682s3.3305 1.4355 3.4046 3.2682c.0044.1065-.0352.2109-.1093.2888-.0741.0767-.1765.1197-.2835.1197z"></path><path d="m34.2436 32.0087c-.8734 0-1.584-.7106-1.584-1.584v-4.5378h-3.3587c-.2171 0-.393-.1761-.393-.3922 0-.2171.1759-.3931.3929-.3931h3.7518c.217 0 .393.1761.393.3931v4.93c0 .4403.358.7987.798.7987.4401 0 .7981-.3584.7981-.7987 0-1.0198.0008-2.0406.0015-3.0614.0009-1.0198.0017-2.0396.0017-3.0604 0-.2304-.1014-.4505-.278-.603-.1466-.128-.3321-.1977-.5233-.1977-.8236 0-1.6473.0011-2.471.0011-.8239.001-1.6478.002-2.4718.002-.217 0-.3929-.1761-.3929-.3932 0-.217.1759-.3931.3929-.3931.8238 0 1.6475 0 2.4712-.0011.8239-.001 1.6478-.001 2.4716-.001.3809 0 .7497.1383 1.0383.3891.3483.301.5488.7382.5488 1.1969 0 1.0208-.0007 2.0406-.0016 3.0614-.0007 1.0198-.0015 2.0407-.0015 3.0604 0 .8734-.7105 1.584-1.584 1.584z"></path><path d="m9.0325 31.9995c-.7872 0-1.5842-.5406-1.5842-1.5748 0-1.0198-.0008-2.0406-.0016-3.0604-.0007-1.0208-.0015-2.0406-.0015-3.0614 0-.8744.712-1.587 1.5873-1.587.8238 0 1.6477.001 2.4716.002.8238 0 1.6475.0011 2.4712.0011.2171 0 .3932.1761.3932.3931 0 .2171-.1762.3932-.3932.3932-.8239 0-1.6479-.001-2.4718-.001-.8237-.001-1.6474-.0021-2.471-.0021-.4416 0-.801.3594-.801.8007 0 1.0208.0008 2.0406.0016 3.0604.0008 1.0208.0016 2.0417.0016 3.0614 0 .5826.4298.7884.7978.7884.3681 0 .7979-.2058.7979-.7884v-4.93c0-.2181.176-.3931.3932-.3931h3.7517c.2171 0 .3932.175.3932.3931 0 .2171-.1762.3932-.3932.3932h-3.3586v4.5368c0 1.0342-.797 1.5748-1.5842 1.5748z"></path><path d="m10.1082 36.0336c-.1007 0-.2012-.0389-.278-.1147-.1536-.1536-.1536-.4034 0-.556.4197-.4198.4197-1.1027 0-1.5225s-1.1026-.4198-1.5223 0c-.4196.4198-.4196 1.1027.0001 1.5225.1535.1526.1535.4024 0 .556-.1537.1526-.4026.1526-.5561-.001-.7262-.726-.7262-1.9075 0-2.6335.7263-.7269 1.908-.7269 2.6343 0 .7262.726.7262 1.9076 0 2.6335-.0767.0768-.1774.1157-.278.1157z"></path><path d="m9.0325 33.5251c-.217 0-.393-.1761-.393-.3932v-1.5154c0-.217.176-.3931.393-.3931s.393.1761.393.3931v1.5154c0 .217-.176.3932-.393.3932z"></path><path d="m35.3193 36.0336c-.1007 0-.2012-.0389-.278-.1147-.1536-.1536-.1536-.4034 0-.556.4197-.4198.4197-1.1027 0-1.5225s-1.1026-.4198-1.5223 0c-.4196.4198-.4196 1.1027.0001 1.5225.1535.1526.1534.4024 0 .556-.1537.1526-.4025.1526-.5561-.001-.7263-.726-.7263-1.9075 0-2.6335.7264-.7269 1.908-.7269 2.6342 0 .7263.726.7263 1.9076.0002 2.6335-.0768.0768-.1775.1157-.2781.1157z"></path><path d="m34.2436 33.5251c-.217 0-.3929-.1761-.3929-.3932v-1.5154c0-.217.1759-.3931.3929-.3931.2171 0 .3929.1761.3929.3931v1.5154c0 .217-.1759.3932-.3929.3932z"></path><path d="m24.9522 25.1609h-6.6282c-.2172 0-.3932-.1761-.3932-.3931 0-.2171.176-.3932.3931-.3932h6.6283c.2171 0 .3932.1761.3932.3932 0 .217-.1762.3931-.3932.3931z"></path><path d="m24.9522 27.8507h-6.6282c-.2172 0-.3932-.1761-.3932-.3932s.176-.3932.3931-.3932h6.6283c.2171 0 .3932.1761.3932.3932 0 .217-.1762.3932-.3932.3932z"></path></g></g></svg>